<svg width="54" height="80" viewBox="0 0 54 80" fill="none" xmlns="http://www.w3.org/2000/svg">
<g clip-path="url(#clip0_66_62)">
<path d="M13.3333 80C20.6933 80 26.6667 74.0267 26.6667 66.6667V53.3334H13.3333C5.97333 53.3334 0 59.3067 0 66.6667C0 74.0267 5.97333 80 13.3333 80Z" fill="#0ACF83"/>
<path d="M0 40C0 32.64 5.97333 26.6666 13.3333 26.6666H26.6667V53.3333H13.3333C5.97333 53.3333 0 47.36 0 40Z" fill="#A259FF"/>
<path d="M0 13.3333C0 5.97333 5.97333 0 13.3333 0H26.6667V26.6667H13.3333C5.97333 26.6667 0 20.6933 0 13.3333Z" fill="#F24E1E"/>
<path d="M26.6665 0H39.9998C47.3598 0 53.3332 5.97333 53.3332 13.3333C53.3332 20.6933 47.3598 26.6667 39.9998 26.6667H26.6665V0Z" fill="#FF7262"/>
<path d="M53.3332 40C53.3332 47.36 47.3598 53.3333 39.9998 53.3333C32.6398 53.3333 26.6665 47.36 26.6665 40C26.6665 32.64 32.6398 26.6666 39.9998 26.6666C47.3598 26.6666 53.3332 32.64 53.3332 40Z" fill="#1ABCFE"/>
</g>
<defs>
<clipPath id="clip0_66_62">
<rect width="53.3333" height="80" fill="white"/>
</clipPath>
</defs>
</svg>
