<svg width="71" height="80" viewBox="0 0 71 80" fill="none" xmlns="http://www.w3.org/2000/svg">
<g clip-path="url(#clip0_66_72)">
<path d="M35.4325 79.8517C34.3322 79.8517 33.3052 79.5583 32.3516 79.0448L22.5946 73.2494C21.1275 72.4425 21.861 72.149 22.3012 72.0023C24.2818 71.3421 24.6486 71.1954 26.7026 70.0214C26.9229 69.8747 27.2163 69.9481 27.4361 70.0948L34.919 74.5698C35.2125 74.7165 35.5792 74.7165 35.7993 74.5698L65.0699 57.6239C65.3633 57.4772 65.51 57.1838 65.51 56.817V22.998C65.51 22.6312 65.3633 22.3378 65.0699 22.1911L35.7993 5.31831C35.5059 5.17159 35.1391 5.17159 34.919 5.31831L5.64844 22.1914C5.35502 22.3381 5.2083 22.7049 5.2083 22.9983V56.817C5.2083 57.1104 5.35502 57.4772 5.64844 57.6239L13.6448 62.2454C17.9731 64.4461 20.6871 61.8786 20.6871 59.3111V25.9323C20.6871 25.4921 21.0541 25.052 21.5676 25.052H25.3091C25.7492 25.052 26.1893 25.4188 26.1893 25.9323V59.3108C26.1893 65.1063 23.0347 68.4807 17.5327 68.4807C15.8455 68.4807 14.5251 68.4807 10.7839 66.6468L3.08097 62.2454C1.1737 61.1447 0 59.0908 0 56.8901V23.0717C0 20.871 1.1737 18.817 3.08097 17.7164L32.3516 0.770486C34.1855 -0.256503 36.6796 -0.256503 38.5135 0.770486L67.7841 17.7164C69.6913 18.8167 70.8651 20.8707 70.8651 23.0717V56.8903C70.8651 59.091 69.6913 61.145 67.7841 62.2454L38.5135 79.1918C37.5599 79.6319 36.4595 79.852 35.4325 79.852V79.8517ZM44.4556 56.5966C31.6177 56.5966 28.9769 50.7281 28.9769 45.7396C28.9769 45.2995 29.3437 44.8593 29.8572 44.8593H33.6717C34.1118 44.8593 34.4789 45.1528 34.4789 45.5929C35.0657 49.4808 36.7529 51.3883 44.529 51.3883C50.6912 51.3883 53.3323 49.9946 53.3323 46.6935C53.3323 44.786 52.5988 43.3922 42.9885 42.4383C34.9924 41.6314 30.0039 39.8708 30.0039 33.4888C30.0039 27.5464 34.9921 24.0253 43.3553 24.0253C52.7452 24.0253 57.3669 27.253 57.9538 34.2955C57.9538 34.5155 57.8804 34.7356 57.7337 34.9557C57.587 35.1024 57.3669 35.2491 57.1469 35.2491H53.3323C52.9653 35.2491 52.5988 34.9557 52.5251 34.5889C51.6448 30.5543 49.3708 29.2339 43.3553 29.2339C36.6065 29.2339 35.7993 31.5813 35.7993 33.3418C35.7993 35.4694 36.7529 36.1294 45.8494 37.3031C54.8728 38.4768 59.1275 40.1643 59.1275 46.4732C59.0541 52.9288 53.7725 56.5966 44.4556 56.5966Z" fill="#539E43"/>
</g>
<defs>
<clipPath id="clip0_66_72">
<rect width="70.8651" height="80" fill="white"/>
</clipPath>
</defs>
</svg>
