<svg width="78" height="80" viewBox="0 0 78 80" fill="none" xmlns="http://www.w3.org/2000/svg">
<g clip-path="url(#clip0_66_74)">
<path d="M77.2749 47.9049C76.8098 46.4961 75.5913 45.5149 74.0155 45.2794C73.2725 45.1685 72.4216 45.2158 71.4146 45.4234C69.6595 45.7855 68.3573 45.9234 67.407 45.95C70.994 39.894 73.9107 32.9879 75.5898 26.487C78.3049 15.9752 76.854 11.1864 75.1586 9.02033C70.6716 3.287 64.1252 0.206998 56.2276 0.112755C52.0146 0.0612402 48.3161 0.893058 46.3867 1.49124C44.5904 1.17427 42.6589 0.997301 40.6322 0.964574C36.8331 0.903968 33.4764 1.73215 30.6083 3.43427C29.0204 2.8973 26.4719 2.14033 23.5289 1.6573C16.607 0.520937 11.0283 1.40639 6.94765 4.28912C2.00643 7.77942 -0.284172 13.8437 0.139465 22.3134C0.27401 25.0025 1.77825 33.1843 4.14674 40.9437C5.50795 45.4037 6.95947 49.1073 8.46098 51.9528C10.5904 55.9876 12.8689 58.3637 15.4267 59.217C16.8604 59.6946 19.4652 60.0291 22.2049 57.7473C22.5522 58.1679 23.0155 58.5858 23.6304 58.974C24.4113 59.4664 25.3661 59.8688 26.3198 60.1073C29.7564 60.9664 32.9755 60.7515 35.7219 59.5473C35.7389 60.0358 35.7519 60.5025 35.7628 60.9055C35.781 61.5591 35.7992 62.2 35.8231 62.7994C35.9858 66.8521 36.2616 70.0034 37.0786 72.2082C37.1234 72.3294 37.1837 72.5143 37.2473 72.7103C37.6549 73.9582 38.3364 76.0473 40.0704 77.6834C41.8658 79.3782 44.0376 79.8979 46.0267 79.8979C47.0243 79.8979 47.9761 79.767 48.811 79.5882C51.7867 78.9503 55.1664 77.9788 57.6113 74.4976C59.9228 71.2067 61.0464 66.25 61.2498 58.44C61.2761 58.2191 61.3004 58.0082 61.3237 57.8073L61.3722 57.3946L61.9167 57.4425L62.057 57.4518C65.088 57.59 68.794 56.9473 71.0701 55.89C72.8686 55.0555 78.6319 52.0128 77.2749 47.9049Z" fill="black"/>
<path d="M72.0927 48.7037C63.0805 50.5627 62.4608 47.5115 62.4608 47.5115C71.976 33.3924 75.9539 15.4703 72.5214 11.084C63.1566 -0.881198 46.946 4.77759 46.6754 4.92426L46.5884 4.94001C44.8078 4.57032 42.8154 4.35032 40.5757 4.31365C36.4981 4.24698 33.4048 5.38274 31.0575 7.16274C31.0575 7.16274 2.13933 -4.75059 3.48448 22.1458C3.77054 27.8676 11.6857 65.4406 21.1263 54.0918C24.5769 49.9418 27.9111 46.433 27.9111 46.433C29.5669 47.533 31.5493 48.0943 33.6275 47.8927L33.789 47.7558C33.7387 48.2709 33.7618 48.7749 33.8536 49.3715C31.4214 52.0888 32.1363 52.5658 27.2745 53.5667C22.3548 54.5806 25.2448 56.3855 27.1318 56.8576C29.4193 57.4294 34.7114 58.2397 38.2872 53.234L38.1448 53.8052C39.0975 54.5685 39.7666 58.7697 39.6545 62.5785C39.5424 66.387 39.4675 69.0018 40.2181 71.0443C40.9693 73.0867 41.7175 77.6821 48.109 76.3127C53.4493 75.1682 56.2169 72.2024 56.6021 67.2552C56.8751 63.7382 57.4936 64.2582 57.5324 61.1137L58.0284 59.6252C58.6002 54.8576 58.1193 53.3194 61.4093 54.0349L62.2093 54.1052C64.6305 54.2152 67.8002 53.7155 69.6605 52.8509C73.666 50.9921 76.0417 47.8882 72.0921 48.7037H72.0927Z" fill="#336791"/>
<path d="M32.7505 24.7046C31.9383 24.5916 31.2029 24.6961 30.8308 24.9779C30.6217 25.1364 30.5568 25.32 30.5392 25.4464C30.4926 25.7813 30.7271 26.1516 30.8714 26.3425C31.2792 26.8831 31.875 27.2546 32.4647 27.3364C32.5502 27.3485 32.6353 27.354 32.7198 27.354C33.7032 27.354 34.5974 26.5882 34.6762 26.0231C34.7747 25.3152 33.7471 24.8431 32.7505 24.7046ZM59.6547 24.727C59.5771 24.1722 58.5899 24.014 57.6529 24.1443C56.7171 24.2746 55.8099 24.697 55.8856 25.2531C55.9462 25.6855 56.7271 26.4237 57.6514 26.4237C57.7295 26.4237 57.8083 26.4185 57.8877 26.4073C58.5047 26.3219 58.9574 25.93 59.1726 25.7043C59.4999 25.36 59.6895 24.9764 59.6547 24.727Z" fill="white"/>
<path d="M75.0913 48.4924C74.7476 47.4533 73.6416 47.119 71.804 47.4984C66.3479 48.6245 64.394 47.8445 63.7525 47.3721C67.9934 40.9115 71.4822 33.1018 73.3643 25.8154C74.2558 22.3639 74.7482 19.1584 74.7886 16.5457C74.8331 13.6781 74.3446 11.5709 73.3373 10.2836C69.2761 5.0942 63.3155 2.31057 56.1004 2.2342C51.1401 2.17845 46.9492 3.44784 46.1367 3.80481C44.4258 3.37935 42.5607 3.11814 40.5301 3.08481C36.8064 3.02451 33.5876 3.91602 30.9228 5.73329C29.7652 5.30238 26.7737 4.27541 23.1152 3.68602C16.7904 2.66784 11.7643 3.43935 8.17764 5.98026C3.89794 9.01238 1.92218 14.4324 2.30491 22.0894C2.4337 24.6654 3.90158 32.5903 6.21794 40.1797C9.26703 50.1687 12.5816 55.8236 16.0689 56.9869C16.477 57.123 16.9476 57.2181 17.4667 57.2181C18.7388 57.2181 20.2985 56.6448 21.9213 54.6939C23.9005 52.3195 25.948 50.0028 28.061 47.7466C29.4319 48.4824 30.9379 48.8933 32.4782 48.9345C32.4813 48.9748 32.4852 49.0151 32.4888 49.0551C32.2237 49.3713 31.9641 49.692 31.7101 50.0172C30.6428 51.3721 30.4207 51.6542 26.9852 52.3615C26.0079 52.5633 23.4125 53.0981 23.3743 54.9175C23.3331 56.9054 26.4425 57.7403 26.7967 57.8287C28.0313 58.1378 29.2207 58.2903 30.3549 58.2903C33.1134 58.2903 35.541 57.3836 37.481 55.6293C37.4213 62.716 37.7167 69.699 38.5676 71.8266C39.2646 73.5684 40.967 77.8251 46.3446 77.8248C47.1337 77.8248 48.0022 77.733 48.9576 77.5281C54.5701 76.3251 57.0073 73.8445 57.9501 68.3757C58.4546 65.453 59.3204 58.4739 59.7276 54.7303C60.587 54.9984 61.6934 55.1212 62.8895 55.1209C65.384 55.1209 68.2625 54.5909 70.0676 53.753C72.0955 52.8112 75.7549 50.5003 75.0913 48.4924ZM61.7258 23.1954C61.7073 24.3006 61.5552 25.3039 61.394 26.3512C61.2204 27.4775 61.041 28.6421 60.9958 30.0557C60.9513 31.4315 61.1231 32.8618 61.2892 34.2451C61.6249 37.039 61.9695 39.9154 60.6358 42.7536C60.4143 42.3611 60.217 41.9554 60.0449 41.5387C59.8792 41.1369 59.5192 40.4915 59.0207 39.5981C57.0816 36.1206 52.5407 27.9769 54.8652 24.6539C55.5576 23.6648 57.3149 22.6478 61.7258 23.1954ZM56.3792 4.47208C62.844 4.61481 67.9579 7.03329 71.5786 11.66C74.3555 15.2087 71.2976 31.3563 62.4452 45.2869C62.3562 45.1737 62.2667 45.0609 62.1767 44.9484L62.0646 44.8084C64.3522 41.0306 63.9049 37.2927 63.5067 33.9787C63.3431 32.6187 63.1885 31.3342 63.2279 30.1275C63.2686 28.8487 63.4376 27.7518 63.6013 26.6912C63.8022 25.3842 64.0067 24.0318 63.9504 22.4375C63.9925 22.2703 64.0095 22.0727 63.9873 21.8381C63.8434 20.3094 62.0979 15.7339 58.5404 11.5927C56.5943 9.32754 53.7564 6.79269 49.8816 5.08299C51.5482 4.73754 53.8273 4.41541 56.3792 4.47208ZM20.204 53.266C18.4161 55.4157 17.1816 55.0036 16.7755 54.8684C14.1301 53.986 11.0604 48.3945 8.354 39.5278C6.01218 31.8557 4.6437 24.1409 4.53521 21.9775C4.1934 15.1357 5.85188 10.3675 9.46491 7.80511C15.3449 3.63541 25.0122 6.13117 28.8967 7.39693C28.841 7.45208 28.7828 7.5036 28.7276 7.55966C22.3531 13.9972 22.5043 24.996 22.5201 25.6684C22.5195 25.9278 22.5413 26.2951 22.571 26.8003C22.6807 28.6503 22.8849 32.0933 22.3395 35.9924C21.8328 39.6157 22.9498 43.1621 25.4034 45.7224C25.6552 45.9846 25.9199 46.2342 26.1964 46.4703C25.1043 47.64 22.7307 50.2266 20.204 53.266ZM27.0158 44.1772C25.0382 42.1136 24.1401 39.2433 24.5513 36.3015C25.127 32.1827 24.9146 28.5954 24.8004 26.6681C24.7843 26.3984 24.7701 26.1621 24.7619 25.9757C25.6931 25.15 30.0085 22.8378 33.0861 23.543C34.4904 23.8645 35.3461 24.8209 35.7019 26.4657C37.5431 34.9818 35.9455 38.5312 34.6619 41.3836C34.3973 41.9712 34.1473 42.5266 33.934 43.1012L33.7685 43.5454C33.3498 44.6684 32.9601 45.7127 32.7185 46.7042C30.6161 46.6981 28.571 45.8 27.0158 44.1769V44.1772ZM27.3385 55.6621C26.7246 55.5087 26.1725 55.2424 25.8485 55.0215C26.1192 54.8942 26.6007 54.7209 27.4358 54.5487C31.4773 53.7169 32.1016 53.1297 33.4646 51.399C33.777 51.0021 34.1313 50.5524 34.6219 50.0045L34.6225 50.0039C35.3531 49.1857 35.6873 49.3245 36.2934 49.576C36.7846 49.779 37.2631 50.3948 37.457 51.0724C37.5489 51.3924 37.6519 51.9997 37.3146 52.4724C34.4673 56.459 30.3182 56.4078 27.3385 55.6621ZM48.4898 75.3445C43.5455 76.4039 41.7949 73.8812 40.6413 70.9972C39.8967 69.1354 39.5307 60.7397 39.7904 51.4678C39.7937 51.3445 39.7761 51.2254 39.7422 51.1133C39.7118 50.8919 39.6656 50.6729 39.604 50.4581C39.2179 49.109 38.277 47.9806 37.1482 47.5127C36.6998 47.3269 35.8767 46.986 34.8876 47.239C35.0985 46.37 35.4643 45.3884 35.861 44.3257L36.0273 43.8787C36.2146 43.3748 36.4498 42.8527 36.6982 42.3C38.0416 39.3157 39.8813 35.2281 37.8846 25.9939C37.1367 22.5351 34.6392 20.846 30.8531 21.2384C28.5834 21.4733 26.5067 22.389 25.471 22.9142C25.2482 23.0269 25.0446 23.136 24.8543 23.2421C25.1434 19.7572 26.2355 13.2445 30.321 9.1239C32.8934 6.52996 36.3192 5.24875 40.4931 5.31784C48.7173 5.45238 53.9913 9.67299 56.9676 13.1903C59.5325 16.2209 60.9213 19.2739 61.4755 20.9206C57.3073 20.4966 54.4725 21.3194 53.0355 23.3739C49.9092 27.843 54.7458 36.5169 57.0704 40.6857C57.4967 41.4497 57.8646 42.11 57.9804 42.3906C58.7373 44.2251 59.7173 45.45 60.4328 46.3439C60.6522 46.6178 60.8649 46.8836 61.0267 47.1157C59.7643 47.4797 57.4967 48.3206 57.7034 52.5239C57.5367 54.633 56.3516 64.5075 55.7495 67.9963C54.9546 72.6054 53.2585 74.3221 48.4898 75.3448V75.3445ZM69.1273 51.7275C67.8364 52.3266 65.6761 52.776 63.624 52.8727C61.3573 52.9787 60.2034 52.6187 59.9319 52.3972C59.8046 49.7778 60.7795 49.5042 61.8113 49.2145C61.9734 49.169 62.1316 49.1245 62.2843 49.0712C62.3792 49.1484 62.4831 49.2251 62.597 49.3003C64.4189 50.5027 67.6683 50.6324 72.2558 49.6854L72.3061 49.6754C71.6873 50.2539 70.6285 51.0303 69.1273 51.7275Z" fill="white"/>
</g>
<defs>
<clipPath id="clip0_66_74">
<rect width="77.5758" height="80" fill="white"/>
</clipPath>
</defs>
</svg>
